<?xml version="1.0" encoding="UTF-8" standalone="no"?>
<!-- Created with Inkscape (http://www.inkscape.org/) -->

<svg
   width="135.46666mm"
   height="135.46666mm"
   viewBox="0 0 135.46666 135.46666"
   version="1.1"
   id="svg1"
   inkscape:version="1.4 (e7c3feb100, 2024-10-09)"
   sodipodi:docname="icon.svg"
   xmlns:inkscape="http://www.inkscape.org/namespaces/inkscape"
   xmlns:sodipodi="http://sodipodi.sourceforge.net/DTD/sodipodi-0.dtd"
   xmlns="http://www.w3.org/2000/svg"
   xmlns:svg="http://www.w3.org/2000/svg">
  <sodipodi:namedview
     id="namedview1"
     pagecolor="#ffffff"
     bordercolor="#000000"
     borderopacity="0.25"
     inkscape:showpageshadow="2"
     inkscape:pageopacity="0.0"
     inkscape:pagecheckerboard="0"
     inkscape:deskcolor="#d1d1d1"
     inkscape:document-units="mm"
     inkscape:zoom="1.0078851"
     inkscape:cx="300.62951"
     inkscape:cy="268.87986"
     inkscape:window-width="1920"
     inkscape:window-height="1011"
     inkscape:window-x="0"
     inkscape:window-y="0"
     inkscape:window-maximized="1"
     inkscape:current-layer="layer1" />
  <defs
     id="defs1" />
  <g
     inkscape:label="Camada 1"
     inkscape:groupmode="layer"
     id="layer1"
     transform="translate(-91.601997,-116.334)">
    <rect
       style="fill:#eee4da;stroke-width:6.11619;fill-opacity:1"
       id="rect1"
       width="135.46666"
       height="135.46666"
       x="91.601997"
       y="116.334"
       ry="39.37701" />
    <path
       d="m 174.95672,149.00002 a 4.6080659,4.6080659 0 0 0 7.74155,-2.18435 11.520165,11.520165 0 1 1 13.88863,13.89333 4.6080659,4.6080659 0 0 0 -2.18417,7.74156 l 7.75531,7.75078 a 11.123871,11.123871 0 0 1 0,15.73197 l -7.75531,7.75531 a 4.6080659,4.6080659 0 0 1 -7.74156,-2.18417 11.520165,11.520165 0 1 0 -13.8888,13.89333 4.6080659,4.6080659 0 0 1 2.18435,7.74156 l -7.75549,7.75078 a 11.123871,11.123871 0 0 1 -15.7318,0 l -7.75549,-7.75531 a 4.6080659,4.6080659 0 0 0 -7.74155,2.18417 11.520165,11.520165 0 1 1 -13.88863,-13.89333 4.6080659,4.6080659 0 0 0 2.18417,-7.74156 l -7.75531,-7.75078 a 11.123871,11.123871 0 0 1 0,-15.73197 l 7.75531,-7.75531 a 4.6080659,4.6080659 0 0 1 7.74156,2.18417 11.520165,11.520165 0 1 0 13.88864,-13.89333 4.6080659,4.6080659 0 0 1 -2.18419,-7.74156 l 7.75549,-7.75078 a 11.123871,11.123871 0 0 1 15.7318,0 z"
       id="path1"
       style="fill:#8f7a66;fill-opacity:1;stroke-width:4.60806" />
  </g>
</svg>
